<svg xmlns="http://www.w3.org/2000/svg" xmlns:xlink="http://www.w3.org/1999/xlink" width="11" height="20" viewBox="0 0 11 20"><defs><path id="612na" d="M1105.586 769.004l-2.639-.004c-2.964 0-4.88 1.932-4.88 4.922v2.27h-2.652a.411.411 0 0 0-.415.407v3.289c0 .225.186.407.415.407h2.653v8.297c0 .226.185.408.415.408h3.46c.23 0 .416-.183.416-.408v-8.297h3.101c.23 0 .415-.182.415-.407l.001-3.289a.405.405 0 0 0-.121-.288.419.419 0 0 0-.294-.12h-3.102v-1.923c0-.925.224-1.394 1.449-1.394l1.777-.001a.411.411 0 0 0 .415-.408v-3.053a.412.412 0 0 0-.414-.408z"/></defs><g><g transform="translate(-1095 -769)"><use fill="#3e3d34" xlink:href="#612na"/></g></g></svg>