<svg xmlns="http://www.w3.org/2000/svg" xmlns:xlink="http://www.w3.org/1999/xlink" width="20" height="20" viewBox="0 0 20 20"><defs><path id="otn1a" d="M1241.51 769h-.001c-.667 0-1.296.26-1.77.731a2.498 2.498 0 0 0 .015 3.562 2.438 2.438 0 0 0 1.79.707c.623 0 1.241-.255 1.701-.704a2.49 2.49 0 0 0 .755-1.79 2.486 2.486 0 0 0-.731-1.769 2.47 2.47 0 0 0-1.758-.737z"/><path id="otn1b" d="M1242.929 775h-2.888c-.574 0-1.041.46-1.041 1.027v11.951c0 .554.49 1.022 1.071 1.022h2.858c.58 0 1.071-.459 1.071-1.001v-11.974c0-.556-.49-1.025-1.071-1.025z"/><path id="otn1c" d="M1254.146 775h-.738c-1.359 0-2.663.551-3.508 1.462V776c0-.33-.354-.667-.7-.667h-3.5c-.324 0-.7.274-.7.626v12.438c0 .353.369.6.7.6l3.85.001c.331 0 .7-.246.7-.6v-7.186c0-1.084.844-1.942 1.921-1.954a2.035 2.035 0 0 1 1.453.564c.32.305.476.75.476 1.361v7.15c0 .33.354.667.7.667h3.5c.346 0 .7-.336.7-.667v-8.603c0-2.652-2.133-4.73-4.854-4.73z"/></defs><g><g transform="translate(-1239 -769)"><use fill="#3e3d34" xlink:href="#otn1a"/></g><g transform="translate(-1239 -769)"><use fill="#3e3d34" xlink:href="#otn1b"/></g><g transform="translate(-1239 -769)"><use fill="#3e3d34" xlink:href="#otn1c"/></g></g></svg>