<svg xmlns="http://www.w3.org/2000/svg" xmlns:xlink="http://www.w3.org/1999/xlink" width="22" height="22" viewBox="0 0 22 22"><defs><path id="3znwa" d="M1207.75 783.766a3.988 3.988 0 0 1-3.984 3.984h-9.533a3.988 3.988 0 0 1-3.983-3.984v-9.532a3.988 3.988 0 0 1 3.983-3.984h9.533a3.988 3.988 0 0 1 3.984 3.984v9.532zM1203.48 769h-8.96a5.526 5.526 0 0 0-5.52 5.52v8.96a5.525 5.525 0 0 0 5.52 5.52h8.96a5.526 5.526 0 0 0 5.52-5.52v-8.96a5.526 5.526 0 0 0-5.52-5.52z"/><path id="3znwb" d="M1199 782.75a3.754 3.754 0 0 1-3.75-3.75 3.754 3.754 0 0 1 3.75-3.75 3.754 3.754 0 0 1 3.75 3.75 3.754 3.754 0 0 1-3.75 3.75zm0-8.75c-2.757 0-5 2.243-5 5s2.243 5 5 5 5-2.243 5-5-2.243-5-5-5z"/><path id="3znwc" d="M1204 773a1.004 1.004 0 0 0-1 1c0 .263.107.52.294.707.185.186.443.293.706.293.264 0 .52-.107.707-.293a1.004 1.004 0 0 0 0-1.415A1.004 1.004 0 0 0 1204 773z"/></defs><g><g transform="translate(-1188 -768)"><use fill="#3e3d34" xlink:href="#3znwa"/><use fill="#fff" fill-opacity="0" stroke="#3e3d34" stroke-miterlimit="50" xlink:href="#3znwa"/></g><g transform="translate(-1188 -768)"><use fill="#3e3d34" xlink:href="#3znwb"/><use fill="#fff" fill-opacity="0" stroke="#3e3d34" stroke-miterlimit="50" xlink:href="#3znwb"/></g><g transform="translate(-1188 -768)"><use fill="#3e3d34" xlink:href="#3znwc"/><use fill="#fff" fill-opacity="0" stroke="#3e3d34" stroke-miterlimit="50" xlink:href="#3znwc"/></g></g></svg>