<svg xmlns="http://www.w3.org/2000/svg" width="13" height="18" viewBox="0 0 13 18">
    <g fill="#3E3D34" fill-rule="nonzero">
        <path d="M11.718 13.559c-.508-.589-1.976-1.878-2.89-.759a7.731 7.731 0 0 0-1.287 2.333c-.815-.493-2.696-2.675-2.696-2.675s-1.882-2.181-2.262-3.074c0 0 1.21-.242 2.392-1.05 1.183-.809.111-2.462-.397-3.051-.507-.589-1.866-2.164-2.934-1.019 0 0-2.507 2.359-1.329 4.753 1.178 2.394 2.637 4.002 3.204 4.66.568.658 1.947 2.34 4.115 3.824 2.167 1.484 4.726-.815 4.726-.815 1.224-.963-.135-2.538-.642-3.127zM5.78 6.362l.63.067c.264-3.17-2.392-3.851-2.42-3.858l-.133.695c.087.021 2.135.548 1.922 3.096z"/>
        <path d="M7.029 6.368l.657.06c.403-4.226-3.649-5.133-3.69-5.142l-.139.632c.144.03 3.522.789 3.172 4.45z"/>
        <path d="M8.294 6.372l.668.057C9.505 1.145 4.054.01 3.999 0l-.142.597c.201.04 4.924 1.037 4.437 5.775z"/>
    </g>
</svg>
