<svg xmlns="http://www.w3.org/2000/svg" width="24" height="22" viewBox="0 0 24 22">
    <g fill="#FFF" fill-rule="nonzero" stroke="#FFF" stroke-width=".5">
        <path d="M5.976 1.104a.523.523 0 0 0-.524.522v1.017H3.698a2.614 2.614 0 0 0-2.62 2.61v9.495a2.614 2.614 0 0 0 2.62 2.609h7.019a6.34 6.34 0 0 0 6.157 3.852 6.334 6.334 0 0 0 5.74-4.446 6.299 6.299 0 0 0-2.233-6.893V5.278c0-.692-.276-1.355-.767-1.844a2.624 2.624 0 0 0-1.852-.764h-1.755V1.626a.523.523 0 0 0-1.047 0v1.017H6.5V1.626a.523.523 0 0 0-.524-.522zm15.898 13.8c0 2.907-2.364 5.265-5.282 5.27-2.918.005-5.29-2.345-5.3-5.252-.009-2.907 2.347-5.273 5.265-5.287 2.926 0 5.302 2.355 5.317 5.27zM14.986 3.687v.756a.523.523 0 0 0 1.047 0v-.73h1.729c.868 0 1.571.7 1.571 1.565v3.94a6.359 6.359 0 0 0-6.727.73 6.3 6.3 0 0 0-2.23 6.365H3.698c-.868 0-1.572-.7-1.572-1.565v-9.47c0-.864.704-1.565 1.572-1.565h1.754v.757a.523.523 0 0 0 1.048 0v-.757l8.486-.026z"/>
        <path d="M18.705 14.852h-1.912v-2.687a.523.523 0 0 0-1.048 0v3.209c0 .288.235.522.524.522h2.436a.523.523 0 1 0 0-1.044z"/>
    </g>
</svg>
