<svg xmlns="http://www.w3.org/2000/svg" xmlns:xlink="http://www.w3.org/1999/xlink" width="12" height="12" viewBox="0 0 12 12"><defs><path id="8fkaa" d="M539.412 370.545a3.484 3.484 0 0 1-2.477 1.025 3.5 3.5 0 1 1 0-6.997 3.499 3.499 0 0 1 2.478 5.972zm.425-9.475v1.364h1.766l-1.751 1.751a4.825 4.825 0 0 0-2.922-.976 4.83 4.83 0 0 0-3.439 1.424 4.868 4.868 0 0 0 0 6.877 4.831 4.831 0 0 0 3.439 1.424 4.83 4.83 0 0 0 3.438-1.425 4.87 4.87 0 0 0 .447-6.359l1.753-1.752v1.767h1.363v-4.095z"/></defs><g><g transform="translate(-532 -361)"><use fill="#272204" xlink:href="#8fkaa"/></g></g></svg>