<svg xmlns="http://www.w3.org/2000/svg" xmlns:xlink="http://www.w3.org/1999/xlink" width="9" height="14" viewBox="0 0 9 14"><defs><path id="m4tqa" d="M81.501 360.286a3.218 3.218 0 0 0-3.215 3.215 3.227 3.227 0 0 0 3.215 3.216 3.227 3.227 0 0 0 3.216-3.216 3.218 3.218 0 0 0-3.216-3.215zm-.58 12.051v-1.883h-2.027v-1.304h2.028v-1.216l-.145-.015a4.464 4.464 0 0 1-3.737-4.403 4.466 4.466 0 0 1 4.461-4.476 4.479 4.479 0 0 1 4.476 4.476c0 2.187-1.593 4.041-3.751 4.403l-.145.015v1.216h2.028v1.304H82.08v1.883z"/></defs><g><g transform="translate(-77 -359)"><use fill="#272204" xlink:href="#m4tqa"/></g></g></svg>