<svg xmlns="http://www.w3.org/2000/svg" xmlns:xlink="http://www.w3.org/1999/xlink" width="95" height="56" viewBox="0 0 95 56">
    <defs>
        <path id="b" d="M23 0h39c12.703 0 23 10.297 23 23S74.703 46 62 46H23C10.297 46 0 35.703 0 23S10.297 0 23 0z"/>
        <filter id="a" width="118.8%" height="134.8%" x="-9.4%" y="-15.2%" filterUnits="objectBoundingBox">
            <feOffset dy="1" in="SourceAlpha" result="shadowOffsetOuter1"/>
            <feGaussianBlur in="shadowOffsetOuter1" result="shadowBlurOuter1" stdDeviation="2.5"/>
            <feColorMatrix in="shadowBlurOuter1" values="0 0 0 0 0 0 0 0 0 0 0 0 0 0 0 0 0 0 0.1 0"/>
        </filter>
    </defs>
    <g fill="none" fill-rule="evenodd">
        <g transform="translate(5 4)">
            <use fill="#000" filter="url(#a)" xlink:href="#b"/>
            <use fill="#FFF" xlink:href="#b"/>
        </g>
        <g fill-rule="nonzero">
            <path fill="#FBBB00" d="M42.99 29.878l-.627 2.339-2.29.048A8.96 8.96 0 0 1 39 28c0-1.492.363-2.9 1.006-4.139l2.04.374.893 2.026a5.35 5.35 0 0 0-.29 1.739c.001.66.12 1.294.34 1.878z"/>
            <path fill="#518EF8" d="M56.843 26.319a9.01 9.01 0 0 1-.04 3.56 8.998 8.998 0 0 1-3.169 5.14v-.001l-2.568-.131-.363-2.269a5.364 5.364 0 0 0 2.307-2.739h-4.812v-3.56h8.645z"/>
            <path fill="#28B446" d="M53.634 35.018A8.962 8.962 0 0 1 48 37a8.999 8.999 0 0 1-7.927-4.735l2.916-2.387a5.351 5.351 0 0 0 7.713 2.74l2.932 2.4z"/>
            <path fill="#F14336" d="M53.745 21.072l-2.916 2.387a5.353 5.353 0 0 0-7.89 2.802l-2.932-2.4A8.998 8.998 0 0 1 48 19c2.184 0 4.186.778 5.745 2.072z"/>
        </g>
    </g>
</svg>
